<?xml version="1.0" encoding="UTF-8"?>
<svg id="Layer_6" data-name="Layer 6" xmlns="http://www.w3.org/2000/svg" viewBox="0 0 1920 720">
  <defs>
    <style>
      .cls-1 {
        fill: #fff;
      }
    </style>
  </defs>
  <path class="cls-1" d="M647.33,197.78v284.58l-34.77,33.7V250.58l-104.3,119.17-104.3-119.17v378.51l-34.77-39.09V197.78h34.77l104.3,119.21,104.3-119.21h34.77Z"/>
  <path class="cls-1" d="M1566.77,166.52l-23.05,16.38,26.69,8.44,21.72,35.72-24.21-14.36-12.41-2.33,9.87,17.41-8.26,38.41-31.57,35.18s9.14-35.18,9.14-35.72-6.28-41.1-6.28-41.1l-13.45-10.1-132.51,233.63h143.1v2.53l-11.88,25.28h-204.05v-2.53l136.87-240.82h-629.44c-11.59,0-22.52,4.52-30.71,12.74-8.23,8.19-12.75,19.12-12.75,30.71s4.52,22.52,12.71,30.71c8.23,8.23,19.16,12.75,30.75,12.75h-6.66c20.9,0,40.52,8.15,55.32,22.91,14.76,14.79,22.9,34.41,22.9,55.31s-8.15,40.56-22.9,55.32c-14.79,14.76-34.41,22.91-55.32,22.91h-140.9l34.68-34.77h50.38c11.59,0,22.52-4.52,30.75-12.75,8.19-8.19,12.71-19.08,12.71-30.71s-4.52-22.51-12.75-30.71c-8.19-8.22-19.12-12.74-30.71-12.74h19.15c-20.9,0-40.52-8.15-55.32-22.91-14.76-14.76-22.9-34.41-22.9-55.32s8.15-40.52,22.9-55.32c14.79-14.75,34.41-22.9,55.32-22.9h608.36l70.01-12.41,68.39-26.39,50.72-44.15,48.37-61.93-19.93,74.31-32.85,39.31Z"/>
  <path class="cls-1" d="M1174.36,336.84l79.24-104.29h-43.69l-57.38,75.55-57.38-75.55h-43.68l79.24,104.29-105.65,139.06h43.64l83.82-110.33,83.82,110.33h43.65l-105.65-139.06Z"/>
  <path class="cls-1" d="M929.75,484.53l60.5,84.18,4.06-336.16h-60.5l-4.06,251.98ZM991.29,61.7l-57.49,27.23v108.85h60.5V61.7h-3.02Z"/>
</svg>