<?xml version="1.0" encoding="UTF-8"?>
<svg id="Layer_6" data-name="Layer 6" xmlns="http://www.w3.org/2000/svg" viewBox="0 0 1080 1080">
  <defs>
    <style>
      .cls-1 {
        fill: #fff;
      }
    </style>
  </defs>
  <g>
    <polygon class="cls-1" points="358.08 879.62 270.11 794.53 245.53 709.67 245.53 593.32 249.98 513.36 254.48 500.39 328.44 521.73 318.25 548.9 318.25 781.37 358.08 879.62"/>
    <polygon class="cls-1" points="330.03 517.5 328.44 521.73 254.48 500.39 255.95 496.14 270.11 500.22 274.75 501.56 330.03 517.5"/>
    <polygon class="cls-1" points="682.34 534.95 682.34 603.52 641.75 670.18 641.75 600.66 621.97 566.38 620.5 561.94 621.97 587.33 609.35 663.51 539.08 663.51 495.86 643.27 459.8 626.37 430.07 574.95 444.49 640.66 394.93 591.14 390.52 530.08 539.9 543.27 540.47 543.32 677.03 520.75 682.34 534.95"/>
    <polygon class="cls-1" points="677.03 520.75 540.47 543.32 539.9 543.27 390.52 530.08 390.43 528.82 390.58 525.57 540.3 538.79 675.42 516.46 677.03 520.75"/>
    <polygon class="cls-1" points="717.02 820.64 541.05 889.2 352.14 820.64 341.33 757.79 541.05 705.41 726.93 761.59 717.02 820.64"/>
  </g>
  <polygon class="cls-1" points="325.72 402.96 372.1 418.21 534.13 437.27 696.1 422.66 768.52 388.99 768.52 310.84 700.36 285.11 545.63 268.94 382.22 280.95 325.72 307.67 325.72 402.96"/>
  <polygon class="cls-1" points="312.24 369.93 312.24 326.35 277.02 305.83 254.99 265.46 253.86 227.62 257.99 164.58 221.39 221.97 201.91 302.44 204.87 350.02 230.62 380.13 258.56 373.7 312.24 369.93"/>
  <polygon class="cls-1" points="896.26 566.78 850.71 644.21 889.66 640.73 841.51 670.86 805.65 737.86 741.86 792.81 773.68 691.18 773.98 690.23 761.31 593.8 718.93 504.76 712.68 500.99 539.78 529.57 344.11 512.29 206.68 472.66 177.48 460.9 159.27 441.46 166.64 424.19 193.7 405.71 215.31 396.67 258.08 384.81 312.58 380.57 312.04 408.46 368.07 429.25 534.66 447.1 535.11 447.14 698.45 431.79 792.1 392.7 825.68 336.06 800.55 246.55 807.73 200.05 837.75 146.02 824.55 209.12 840.81 283.34 898.57 338.3 901.79 436.43 852.05 565.6 913.59 482.55 896.26 566.78"/>
</svg>